<svg xmlns="http://www.w3.org/2000/svg" viewBox="0 0 580 200">
<text x="570" y="10" font-size="7" opacity=".3">#K2S9</text>
<!-- GLYPH 16×16 -->
<path d="M25 22h6l-2 5h-2l-2-5z"/>
<path d="M27 27h2v4l-1 2-1-2v-4z" opacity=".6"/>
<circle cx="28" cy="34" r=".6" opacity=".3"/>
<!-- LOCKUP 80px -->
<g transform="translate(70,0)">
<path d="M20 45h20l-5 12h-10l-5-12z"/>
<path d="M25 57h10v10l-2 5-3-2-3 2-2-5v-10z" opacity=".7"/>
<circle cx="30" cy="73" r="1.5" opacity=".5"/>
<circle cx="28" cy="76" r="1.2" opacity=".3"/>
<circle cx="32" cy="76" r="1.2" opacity=".3"/>
<text x="60" y="52" font-size="18" font-weight="700">OneTime</text>
<text x="60" y="70" font-size="18" font-weight="300">Secret</text>
</g>
<!-- BADGE 200px -->
<g transform="translate(300,0)">
<path d="M100 35h60l-12 28h-36l-12-28z"/>
<path d="M112 63h36v22l-6 12-12-6-12 6-6-12v-22z" opacity=".8"/>
<circle cx="130" cy="98" r="3.5" opacity=".6"/>
<circle cx="122" cy="104" r="2.8" opacity=".4"/>
<circle cx="138" cy="104" r="2.8" opacity=".4"/>
<circle cx="126" cy="108" r="2.2" opacity=".25"/>
<circle cx="134" cy="108" r="2.2" opacity=".25"/>
<text x="130" y="135" font-size="28" font-weight="700" text-anchor="middle">OneTime</text>
<text x="130" y="160" font-size="28" font-weight="300" text-anchor="middle">Secret</text>
<text x="130" y="185" font-size="14" text-anchor="middle" opacity=".7">One view. Then gone.</text>
</g>
<text x="5" y="195" font-size="8" opacity=".4">Sand running out—grains scattering, time expired.</text>
</svg>
